<svg xmlns="http://www.w3.org/2000/svg" viewBox="0 0 512 512">
  <defs>
    <mask id="ring">
      <rect width="512" height="512" fill="white" />
      <circle cx="256" cy="256" r="84" fill="black" />
    </mask>
  </defs>
  <path
    fill="#000"
    mask="url(#ring)"
    d="M276 0 293 1 275 9 252 25 237 41 232 52 259 46 294 44 332 48 365 57 396 71 417 84 436 99 466 131 482 155 494 179 504 208 511 250 512 297 487 256 470 238 460 232 466 259 468 286 467 311 462 341 453 370 442 394 412 437 374 471 355 483 325 497 291 507 272 510 214 512 258 483 280 460 243 467 202 467 171 462 137 451 118 442 75 412 41 374 29 355 15 325 5 291 2 272 0 215 22 252 42 274 52 280 47 259 44 226 48 180 54 156 64 130 90 87 126 50 168 23 216 6 239 2Z"
  />
  <circle cx="256" cy="256" r="54" fill="#000" />
</svg>
